<?xml version="1.0" encoding="UTF-8"?><!DOCTYPE svg PUBLIC "-//W3C//DTD SVG 1.1//EN" "http://www.w3.org/Graphics/SVG/1.1/DTD/svg11.dtd"><svg xmlns="http://www.w3.org/2000/svg" xmlns:xlink="http://www.w3.org/1999/xlink" xml:space="preserve" width="43.3492mm" height="43.3492mm" version="1.1" viewBox="0 0 4335 4335" shape-rendering="geometricPrecision" text-rendering="geometricPrecision" image-rendering="optimizeQuality" fill-rule="evenodd" clip-rule="evenodd"><defs><style type="text/css"><![CDATA[
    .fil0 {fill:#1E96C8}
    .fil1 {fill:#239DD1}
    .fil2 {fill:#3DACDB}
   ]]></style></defs><g id="Layer_x0020_1"><g id="_397588032"><path class="fil0" d="M251 2034c-109-36-188-139-188-260 0-119 76-221 183-258 1077-379 2177-732 3229-1165 32-13 67-21 104-21 151 0 274 123 274 274 0 32-5 62-15 91L2677 3999l-1 3c-37 107-139 183-258 183-108 0-201-63-246-154l-664-1356-1256-641z" fill="#1E96C8"/><path class="fil1" d="M251 2034c-109-36-188-139-188-260 0-119 76-221 183-258 1077-379 2177-732 3229-1165 32-13 67-21 104-21 151 0 274 123 274 274 0 32-5 62-15 91L2677 3999l-1 3c-37 107-139 183-258 183-108 0-201-63-246-154l-664-1356-1256-641z" fill="#239DD1"/><path class="fil2" d="M251 2034c-109-36-188-139-188-260 0-119 76-221 183-258 1077-379 2177-732 3229-1165 32-13 67-21 104-21 77 0 146 32 196 83L1465 2654 251 2034z" fill="#3DACDB"/></g></g><metadata><rdf:RDF xmlns:rdf="http://www.w3.org/1999/02/22-rdf-syntax-ns#" xmlns:rdfs="http://www.w3.org/2000/01/rdf-schema#" xmlns:dc="http://purl.org/dc/elements/1.1/"><rdf:Description about="https://iconscout.com/legal#licenses" dc:title="telegram,fly,logo,fav" dc:description="telegram,fly,logo,fav" dc:publisher="Iconscout" dc:date="2018-05-10" dc:format="image/svg+xml" dc:language="en"><dc:creator><rdf:Bag><rdf:li>Egor Polyakov</rdf:li></rdf:Bag></dc:creator></rdf:Description></rdf:RDF></metadata></svg>